<svg width="30" height="16" viewBox="0 0 30 16" fill="none" xmlns="http://www.w3.org/2000/svg">
<path d="M14.2453 15.9951C14.3188 15.6413 14.4267 15.2954 14.5674 14.9625C14.0387 12.8566 15.0591 10.0746 17.4318 6.78357C19.4344 4.01015 15.5521 1.28098 13.4622 0.0798969C13.0516 -0.15491 12.5254 0.162264 12.6287 0.583933C13.7584 5.20385 9.30942 6.66064 9.51472 10.4729C9.65978 13.1775 12.1861 15.0006 13.8949 15.9288C14.0016 15.9878 14.1244 16.011 14.2453 15.9951V15.9951Z" fill="#FF8300"/>
<path d="M19.1176 3.87491C18.8213 3.46307 18.0923 3.66469 18.1107 4.15151C18.1463 4.98881 17.8659 5.8089 17.3252 6.44918C15.8918 8.21085 11.9947 12.4546 13.6986 15.7259C13.7537 15.82 13.8354 15.8957 13.9334 15.9436C14.0313 15.9914 14.1412 16.0094 14.2493 15.9951C14.848 13.1602 17.1998 12.2185 17.7149 12.0464C17.7493 12.0341 17.7825 12.0649 17.7665 12.0944C17.6239 12.3464 17.1949 13.2106 16.9625 14.5986C18.0689 13.861 19.2061 12.8529 19.79 11.5953C20.8706 9.25211 20.7477 6.14676 19.1176 3.87491Z" fill="#E87200"/>
</svg>
